<svg xmlns="http://www.w3.org/2000/svg" xmlns:xlink="http://www.w3.org/1999/xlink" viewBox="0 0 156.77 157.21"><defs><style>.cls-1,.cls-2{fill:#f1f2f2;}.cls-1{stroke:#e6e7e8;stroke-width:10px;}.cls-1,.cls-2,.cls-3{stroke-miterlimit:10;}.cls-2{stroke:#fff;}.cls-2,.cls-3{stroke-width:2px;}.cls-3{fill:#fdba12;stroke:#fdba12;}.cls-4{fill:url(#linear-gradient);}.cls-5{fill:url(#linear-gradient-2);}</style><linearGradient id="linear-gradient" x1="71.15" y1="41.5" x2="85.68" y2="99.96" gradientUnits="userSpaceOnUse"><stop offset="0.09" stop-color="#2272ba"/><stop offset="1" stop-color="#1b2f5c"/></linearGradient><linearGradient id="linear-gradient-2" x1="71.15" y1="41.5" x2="85.68" y2="99.96" xlink:href="#linear-gradient"/></defs><g id="Layer_3" data-name="Layer 3"><circle class="cls-1" cx="79.11" cy="78.09" r="69.36"/><circle class="cls-2" cx="79.11" cy="78.09" r="69.36"/></g><g id="Layer_1" data-name="Layer 1"><path class="cls-3" d="M109.05,65.51a1.74,1.74,0,0,0-1.25.47c-1.41,1.4-3.13,3.12-4.69,4.53l-.16.15c-1.56,1.57-3.12,3-4.53,4.38l-.62.62-3.75-3.9a2,2,0,0,0-1.25-.63h-.16a1.69,1.69,0,0,0-1.56,1.1,1.47,1.47,0,0,0,.47,1.87l5,5c.15.16.46.31.62.47a2,2,0,0,0,1.88-.47c1.56-1.56,3.28-3.28,5.46-5.31,1.72-1.72,3.75-3.59,5.47-5.31l.16-.16a1.66,1.66,0,0,0,.16-2,1.24,1.24,0,0,0-1.25-.78Z"/><path class="cls-4" d="M124.83,70A23.87,23.87,0,0,0,101,46.24H64A23.87,23.87,0,0,0,40.23,70v37a2.5,2.5,0,0,0,1.45,2.38,3.85,3.85,0,0,0,1.19.26,2.31,2.31,0,0,0,1.59-.53L57,99.12h44a23.87,23.87,0,0,0,23.8-23.8V70Zm-5.29,5.29A18.56,18.56,0,0,1,101,93.83H56.09a2.53,2.53,0,0,0-1.59.53l-9,7.14V70A18.57,18.57,0,0,1,64,51.53h37A18.57,18.57,0,0,1,119.54,70Z"/><path class="cls-5" d="M42.87,110.19a4,4,0,0,1-1.31-.28,3,3,0,0,1-1.83-2.86V70A24.32,24.32,0,0,1,64,45.74h37A24.33,24.33,0,0,1,125.33,70v5.28A24.33,24.33,0,0,1,101,99.62H57.19l-12.42,9.94A2.83,2.83,0,0,1,42.87,110.19ZM64,46.74A23.32,23.32,0,0,0,40.73,70v37A2,2,0,0,0,41.88,109a3.48,3.48,0,0,0,1,.22,1.86,1.86,0,0,0,1.23-.38L56.84,98.62H101a23.32,23.32,0,0,0,23.3-23.3V70A23.32,23.32,0,0,0,101,46.74ZM45,102.53V70A19,19,0,0,1,64,51h37a19,19,0,0,1,19,19v5.29a19,19,0,0,1-19,19H56.09a2,2,0,0,0-1.28.43ZM64,52A18,18,0,0,0,46,70v30.42L54.19,94a3,3,0,0,1,1.9-.64H101a18,18,0,0,0,18-18V70a18,18,0,0,0-18-18Z"/><rect class="cls-3" x="56.46" y="68.74" width="7.93" height="7.93" rx="3.96"/><rect class="cls-3" x="74.22" y="68.74" width="7.93" height="7.93" rx="3.96"/></g></svg>