<svg id="Layer_1" data-name="Layer 1" xmlns="http://www.w3.org/2000/svg" xmlns:xlink="http://www.w3.org/1999/xlink" viewBox="0 0 135 40"><defs><style>.cls-1{fill:#a6a6a6;}.cls-10,.cls-2,.cls-3{fill:#fff;}.cls-2{stroke:#fff;stroke-miterlimit:10;stroke-width:0.2px;}.cls-4{fill:url(#linear-gradient);}.cls-5{fill:url(#linear-gradient-2);}.cls-6{fill:url(#linear-gradient-3);}.cls-7{fill:url(#linear-gradient-4);}.cls-8{opacity:0.2;}.cls-10,.cls-8,.cls-9{isolation:isolate;}.cls-9{opacity:0.12;}.cls-10{opacity:0.25;}</style><linearGradient id="linear-gradient" x1="31.8" y1="-170.29" x2="15.02" y2="-153.51" gradientTransform="translate(0 189)" gradientUnits="userSpaceOnUse"><stop offset="0" stop-color="#00a0ff"/><stop offset="0.01" stop-color="#00a1ff"/><stop offset="0.26" stop-color="#00beff"/><stop offset="0.51" stop-color="#00d2ff"/><stop offset="0.76" stop-color="#00dfff"/><stop offset="1" stop-color="#00e3ff"/></linearGradient><linearGradient id="linear-gradient-2" x1="43.83" y1="-159" x2="19.64" y2="-159" gradientTransform="translate(0 189)" gradientUnits="userSpaceOnUse"><stop offset="0" stop-color="#ffe000"/><stop offset="0.41" stop-color="#ffbd00"/><stop offset="0.78" stop-color="orange"/><stop offset="1" stop-color="#ff9c00"/></linearGradient><linearGradient id="linear-gradient-3" x1="34.83" y1="-156.7" x2="12.07" y2="-133.95" gradientTransform="translate(0 189)" gradientUnits="userSpaceOnUse"><stop offset="0" stop-color="#ff3a44"/><stop offset="1" stop-color="#c31162"/></linearGradient><linearGradient id="linear-gradient-4" x1="17.3" y1="-178.82" x2="27.46" y2="-168.66" gradientTransform="translate(0 189)" gradientUnits="userSpaceOnUse"><stop offset="0" stop-color="#32a071"/><stop offset="0.07" stop-color="#2da771"/><stop offset="0.48" stop-color="#15cf74"/><stop offset="0.8" stop-color="#06e775"/><stop offset="1" stop-color="#00f076"/></linearGradient></defs><rect width="135" height="40" rx="5"/><path class="cls-1" d="M140,10.8a4.2,4.2,0,0,1,4.2,4.2V45a4.2,4.2,0,0,1-4.2,4.2H15A4.2,4.2,0,0,1,10.8,45h0V15A4.2,4.2,0,0,1,15,10.8H140m0-.8H15a5,5,0,0,0-5,5V45a5,5,0,0,0,5,5H140a5,5,0,0,0,5-5V15A5,5,0,0,0,140,10Z" transform="translate(-10 -10)"/><path class="cls-2" d="M57.42,20.24a2.75,2.75,0,0,1-.75,2,2.88,2.88,0,0,1-2.2.89,3.15,3.15,0,0,1-2.21-5.37,3,3,0,0,1,2.21-.9,3.08,3.08,0,0,1,1.23.25,2.61,2.61,0,0,1,.94.67l-.53.53a2,2,0,0,0-1.64-.71,2.32,2.32,0,0,0-2.33,2.31V20a2.36,2.36,0,0,0,4,1.73,1.85,1.85,0,0,0,.5-1.22H54.47v-.72h2.91A2.28,2.28,0,0,1,57.42,20.24ZM62,17.74H59.3v1.9h2.46v.72H59.3v1.9H62V23H58.5V17H62ZM65.28,23h-.77V17.74H62.83V17H67v.74H65.28Zm4.66,0V17h.77v6Zm4.19,0h-.77V17.74H71.68V17H75.8v.74H74.13Zm9.48-.78a3.12,3.12,0,0,1-4.4,0,3.24,3.24,0,0,1,0-4.45,3.1,3.1,0,0,1,4.38,0l0,0A3.24,3.24,0,0,1,83.61,22.22Zm-3.83-.5a2.31,2.31,0,0,0,3.26,0,2.55,2.55,0,0,0,0-3.44,2.31,2.31,0,0,0-3.26,0A2.55,2.55,0,0,0,79.78,21.72ZM85.58,23V17h.94l2.92,4.67V17h.77v6h-.8l-3-4.89V23Z" transform="translate(-10 -10)"/><path class="cls-3" d="M78.14,31.75A4.25,4.25,0,1,0,82.41,36a4.19,4.19,0,0,0-4.13-4.25Zm0,6.83a2.58,2.58,0,1,1,2.39-2.75.91.91,0,0,1,0,.17,2.46,2.46,0,0,1-2.34,2.58Zm-9.31-6.83A4.25,4.25,0,1,0,73.09,36,4.19,4.19,0,0,0,69,31.75h-.13Zm0,6.83a2.58,2.58,0,1,1,2.38-2.76,1.09,1.09,0,0,1,0,.18,2.46,2.46,0,0,1-2.34,2.58h0ZM57.74,33.06v1.8h4.32a3.77,3.77,0,0,1-1,2.27,4.41,4.41,0,0,1-3.33,1.32,4.8,4.8,0,1,1,0-9.6A4.58,4.58,0,0,1,61,30.14l1.27-1.27A6.32,6.32,0,0,0,57.74,27a6.61,6.61,0,0,0-.51,13.21h.51a5.84,5.84,0,0,0,6.17-6.07,6.09,6.09,0,0,0-.1-1.13Zm45.31,1.4a3.92,3.92,0,0,0-7.65,1.28,2.26,2.26,0,0,0,0,.26,4.16,4.16,0,0,0,4.07,4.25h.15a4.23,4.23,0,0,0,3.54-1.88l-1.45-1a2.44,2.44,0,0,1-2.09,1.18,2.17,2.17,0,0,1-2.06-1.29l5.69-2.35Zm-5.8,1.42a2.34,2.34,0,0,1,2.17-2.48h0a1.65,1.65,0,0,1,1.58.9ZM92.63,40H94.5V27.5H92.63Zm-3.06-7.3H89.5a3,3,0,0,0-2.24-1,4.26,4.26,0,0,0,0,8.51,2.9,2.9,0,0,0,2.24-1h.06v.61c0,1.63-.87,2.5-2.27,2.5a2.35,2.35,0,0,1-2.14-1.51l-1.63.68A4,4,0,0,0,87.29,44c2.19,0,4-1.29,4-4.43V32H89.57Zm-2.14,5.88a2.59,2.59,0,0,1,0-5.16,2.4,2.4,0,0,1,2.27,2.52V36a2.38,2.38,0,0,1-2.17,2.57h-.1ZM111.81,27.5h-4.47V40h1.87V35.26h2.61a3.89,3.89,0,0,0,.56-7.76,5.23,5.23,0,0,0-.56,0Zm0,6H109.2V29.24h2.65a2.15,2.15,0,0,1,0,4.29Zm11.53-1.8A3.51,3.51,0,0,0,120,33.61l1.66.69a1.75,1.75,0,0,1,1.7-.92,1.8,1.8,0,0,1,2,1.58v.16a4.14,4.14,0,0,0-2-.48c-1.79,0-3.6,1-3.6,2.81a2.88,2.88,0,0,0,3,2.75h.08a2.62,2.62,0,0,0,2.4-1.2h.06v1h1.8V35.19c0-2.19-1.66-3.46-3.79-3.46Zm-.23,6.85c-.61,0-1.46-.31-1.46-1.06,0-1,1.06-1.33,2-1.33a3.38,3.38,0,0,1,1.7.42,2.26,2.26,0,0,1-2.19,2ZM133.74,32l-2.14,5.42h-.06L129.32,32h-2l3.33,7.58-1.9,4.21h1.95L135.82,32Zm-16.81,8h1.87V27.5h-1.87Z" transform="translate(-10 -10)"/><path class="cls-4" d="M20.44,17.54a2,2,0,0,0-.46,1.4V41.06a2,2,0,0,0,.46,1.4l.07.07L32.9,30.15v-.29L20.51,17.47Z" transform="translate(-10 -10)"/><path class="cls-5" d="M37,34.28l-4.1-4.13v-.29L37,25.72l.09.05L42,28.56c1.4.79,1.4,2.09,0,2.89l-4.89,2.78Z" transform="translate(-10 -10)"/><path class="cls-6" d="M37.12,34.22,32.9,30,20.44,42.46a1.63,1.63,0,0,0,2.08.06l14.61-8.3" transform="translate(-10 -10)"/><path class="cls-7" d="M37.12,25.78l-14.61-8.3a1.63,1.63,0,0,0-2.08.06L32.9,30Z" transform="translate(-10 -10)"/><path class="cls-8" d="M37,34.13,22.51,42.38a1.68,1.68,0,0,1-2,0l-.07.07.07.07a1.65,1.65,0,0,0,2,0l14.61-8.3Z" transform="translate(-10 -10)"/><path class="cls-9" d="M20.44,42.32a2,2,0,0,1-.46-1.4v.15a2,2,0,0,0,.46,1.4l.07-.07ZM42,31.3l-5,2.83.09.09L42,31.44A1.75,1.75,0,0,0,43,30,1.86,1.86,0,0,1,42,31.3Z" transform="translate(-10 -10)"/><path class="cls-10" d="M22.51,17.62,42,28.7A1.86,1.86,0,0,1,43,30a1.75,1.75,0,0,0-1-1.44L22.51,17.48C21.11,16.69,20,17.35,20,19v.15C20,17.49,21.12,16.83,22.51,17.62Z" transform="translate(-10 -10)"/></svg>