<svg xmlns="http://www.w3.org/2000/svg" xmlns:xlink="http://www.w3.org/1999/xlink" viewBox="0 0 156.77 157.21"><defs><style>.cls-1{fill:#fff;}.cls-1,.cls-5{fill-rule:evenodd;}.cls-2,.cls-3{fill:#f1f2f2;stroke-miterlimit:10;}.cls-2{stroke:#e6e7e8;stroke-width:10px;}.cls-3{stroke:#fff;stroke-width:2px;}.cls-4{fill:#fdba12;}.cls-5{fill:#2272ba;}.cls-6{mask:url(#mask);}.cls-7{fill:url(#linear-gradient);}</style><mask id="mask" x="48.37" y="108.14" width="74.05" height="7.27" maskUnits="userSpaceOnUse"><g id="mask-2"><polygon id="path-1" class="cls-1" points="48.37 108.14 122.43 108.14 122.43 115.41 48.37 115.41 48.37 108.14"/></g></mask><linearGradient id="linear-gradient" x1="69.93" y1="33.58" x2="89.75" y2="86.43" gradientUnits="userSpaceOnUse"><stop offset="0.47" stop-color="#2272ba"/><stop offset="1" stop-color="#1b2f5c"/></linearGradient></defs><g id="Layer_3" data-name="Layer 3"><circle class="cls-2" cx="79.11" cy="78.09" r="69.36"/><circle class="cls-3" cx="79.11" cy="78.09" r="69.36"/></g><g id="Layer_1" data-name="Layer 1"><rect class="cls-4" x="66.86" y="55.3" width="28.4" height="23.12" rx="11.56"/><g id="Desktop-Layout"><g id="Login-2a"><g id="logos"><g id="Logo_MyChart" data-name="Logo MyChart"><polygon id="Fill-1" class="cls-5" points="43.56 102.81 34.45 91.84 34.45 109.51 36.25 109.51 36.25 97.01 43.56 105.72 50.87 97.01 50.87 109.51 52.67 109.51 52.67 91.84 43.56 102.81"/><polygon id="Fill-2" class="cls-5" points="58.96 107.69 54.33 96.26 55.94 96.26 59.72 105.61 63.76 96.26 65.37 96.26 59.02 110.61 57.72 110.61 58.96 107.69"/><g id="Group-16"><path id="Fill-3" class="cls-5" d="M83,104.76a9.53,9.53,0,0,1-8.27,4.91A9.08,9.08,0,1,1,83,96.31H81a7.49,7.49,0,1,0,.07,8.45Z"/><path id="Fill-5" class="cls-5" d="M84.59,91.8h1.7V98h0a4.78,4.78,0,0,1,4.07-2,5.58,5.58,0,0,1,4.2,1.59,6.09,6.09,0,0,1,1.65,4.58v7.14h-1.7v-7.14a4.8,4.8,0,0,0-1.26-3.56,4.28,4.28,0,0,0-5.77,0,4.61,4.61,0,0,0-1.24,3.44v7.26h-1.7Z"/><path id="Fill-7" class="cls-5" d="M105.06,108.18a5.32,5.32,0,1,0-5.43-5.27,5.21,5.21,0,0,0,5.43,5.27Zm6.91,1.18h-1.7v-2.27h0a6.18,6.18,0,0,1-5.16,2.58,6.82,6.82,0,1,1,0-13.62,6,6,0,0,1,5.16,2.61h0V96.38H112Z"/><path id="Fill-9" class="cls-5" d="M114.56,96.38h1.7v1.87h0c.8-1.82,2.3-2.11,3.73-2.2V97.8a4.14,4.14,0,0,0-2.86,1.28,4.23,4.23,0,0,0-.92,2.69v7.59h-1.7Z"/><polygon id="Fill-11" class="cls-5" points="123.41 97.87 120.62 97.87 120.62 96.38 123.41 96.38 123.41 91.8 125.11 91.8 125.11 96.38 128.29 96.38 128.29 97.87 125.11 97.87 125.11 109.36 123.41 109.36 123.41 97.87"/><g id="Group-15"><g class="cls-6"><path id="Fill-13" class="cls-5" d="M52.34,114.45c-3.82.31-4.94-4.62,5.35-4.11,0,0-2.19,3.85-5.35,4.11M122,108.37c-2.74,1.63-15.92,4.77-27.69,4.77A131.88,131.88,0,0,1,70,110.88c-5.86-.92-11.12-2.82-17.52-1.21-6,1.51-4.73,5.74-.49,5.74,5,0,7-4.92,7-4.92A184.1,184.1,0,0,0,94,114.32c20.8,0,30.77-7.59,28-5.95"/></g></g></g></g></g></g></g><path class="cls-7" d="M66.63,50.16H54.57V41.07A3.09,3.09,0,0,1,57.65,38H73.31a3.09,3.09,0,0,1,3,2.37h0v.07a2.73,2.73,0,0,1,.07.64v0a3.1,3.1,0,0,0,3,2.44h24.79a3.09,3.09,0,0,1,3.07,2.83H81.34a6.86,6.86,0,0,0-4.58,1.8c-1,.84-1.88,1.89-3.25,2C71.24,50.31,68.9,50.16,66.63,50.16Zm40.64-.69V79.12a3.08,3.08,0,0,1-3.08,3.07H57.65a3.08,3.08,0,0,1-3.08-3.07V53.2H73a7.47,7.47,0,0,0,4.83-2.07,6.74,6.74,0,0,1,2.63-1.57A6.14,6.14,0,0,1,82,49.47ZM92.05,65c0-2.88-2.21-6.38-5.88-6.38a5.35,5.35,0,0,0-4.91,3.26,5.35,5.35,0,0,0-4.91-3.26c-3.68,0-5.89,3.5-5.89,6.38,0,4.84,10.8,12.21,10.8,12.21S92.05,69.8,92.05,65Z"/></g></svg>