<svg id="Layer_1" data-name="Layer 1" xmlns="http://www.w3.org/2000/svg" xmlns:xlink="http://www.w3.org/1999/xlink" viewBox="0 0 1080 1080"><defs><style>.cls-1{fill:url(#linear-gradient);}.cls-2{fill:#fff;}</style><linearGradient id="linear-gradient" x1="540" y1="1080" x2="540" gradientUnits="userSpaceOnUse"><stop offset="0" stop-color="#0bbde6"/><stop offset="1" stop-color="#0072ce"/></linearGradient></defs><rect class="cls-1" width="1080" height="1080"/><path class="cls-2" d="M521.34,374.85c.32.15.63.29.95.41v16.83a56.42,56.42,0,0,1-7.72-3,59.37,59.37,0,0,1-27.35-26.73,58.65,58.65,0,0,1-5.87-18.85H345.07a7.87,7.87,0,0,1-7.87-7.88h0a7.87,7.87,0,0,1,7.87-7.87h151.5v7.87a43,43,0,0,0,4.68,19.59A43.63,43.63,0,0,0,521.34,374.85Z"/><path class="cls-2" d="M489.15,392.09H415.92a5.92,5.92,0,0,1-5.91-5.91h0a5.91,5.91,0,0,1,5.91-5.9h52.95a80.13,80.13,0,0,1-5.36-11.36H384.46a5.91,5.91,0,0,1-5.91-5.9h0a5.92,5.92,0,0,1,5.91-5.91H471a1.38,1.38,0,0,1,1.3.95l1,3.15a69.37,69.37,0,0,0,11.25,21.36l5.66,7.32A1.37,1.37,0,0,1,489.15,392.09Z"/><path class="cls-2" d="M558.66,374.85c-.32.15-.63.29-.95.41v16.83a56.42,56.42,0,0,0,7.72-3,59.37,59.37,0,0,0,27.35-26.73,58.65,58.65,0,0,0,5.87-18.85H734.93a7.87,7.87,0,0,0,7.87-7.88h0a7.87,7.87,0,0,0-7.87-7.87H583.43v7.87a43,43,0,0,1-4.68,19.59A43.63,43.63,0,0,1,558.66,374.85Z"/><path class="cls-2" d="M590.85,392.09h73.23a5.92,5.92,0,0,0,5.91-5.91h0a5.91,5.91,0,0,0-5.91-5.9h-53a80.13,80.13,0,0,0,5.36-11.36h79a5.91,5.91,0,0,0,5.91-5.9h0a5.92,5.92,0,0,0-5.91-5.91H609a1.36,1.36,0,0,0-1.29.95l-1,3.15a69.16,69.16,0,0,1-11.25,21.36l-5.66,7.32A1.37,1.37,0,0,0,590.85,392.09Z"/><path class="cls-2" d="M511.07,564.9h3.35a7.87,7.87,0,0,1,7.87,7.87h0a7.87,7.87,0,0,1-7.87,7.87h-3.35A24.67,24.67,0,0,1,486.43,556V540.47c.55,0,1.1,0,1.65,0h14.09V556A8.92,8.92,0,0,0,511.07,564.9Z"/><path class="cls-2" d="M617,490.35V506a24.69,24.69,0,0,1-14.92,22.66c-.18-.52-.37-1-.57-1.56a34.29,34.29,0,0,0-6.21-10.2,1.75,1.75,0,0,1,.68-2.75,8.92,8.92,0,0,0,5.27-8.15V490.35a8.92,8.92,0,0,0-8.89-8.9H464.47a8.53,8.53,0,0,1-1,0l-1.53-.07a25.26,25.26,0,0,1-6.69-1.68,24.69,24.69,0,0,1-15.43-22.87V425.11a24.66,24.66,0,0,1,24.66-24.66h32.82c12.82,0,24.06,9.49,25.28,22.26a24.68,24.68,0,0,1-24.55,27H474.43a7.88,7.88,0,0,1-7.88-7.87h0a7.88,7.88,0,0,1,7.88-7.88h23.23a9.16,9.16,0,0,0,9.24-8,8.93,8.93,0,0,0-8.88-9.79H464.47a8.92,8.92,0,0,0-8.92,8.92v31.68a8.9,8.9,0,0,0,8.48,8.9,3.24,3.24,0,0,0,.44,0h127.9A24.44,24.44,0,0,1,609,472.16l.46.45a25.08,25.08,0,0,1,2.64,3,17.55,17.55,0,0,1,1.19,1.69l.08.14c.25.39.49.81.71,1.22a25.28,25.28,0,0,1,1.3,2.79c.13.36.27.69.37,1.05A24,24,0,0,1,617,490.35Z"/><path class="cls-2" d="M594,539.59V556a24.67,24.67,0,0,1-9.35,19.33,24.26,24.26,0,0,1-9.84,4.72,24.52,24.52,0,0,1-5.47.61h-3.78a7.87,7.87,0,0,1-7.87-7.87h0a7.87,7.87,0,0,1,7.87-7.87h3.78a8.92,8.92,0,0,0,8.92-8.92V539.59a8.92,8.92,0,0,0-8.92-8.92H488.08a24.32,24.32,0,0,1-9.72-2A24.66,24.66,0,0,1,463.42,506V491.27c.34,0,.69,0,1.05,0h11.87a2.83,2.83,0,0,1,2.83,2.83V506a8.92,8.92,0,0,0,7.89,8.86,8.47,8.47,0,0,0,1,.06h81.28A24.66,24.66,0,0,1,594,539.59Z"/><path class="cls-2" d="M615.34,481.45H465.1a24.66,24.66,0,0,1,23-15.74H592.37A24.68,24.68,0,0,1,615.34,481.45Z"/><path class="cls-2" d="M640.62,425.09v31.7a24.69,24.69,0,0,1-15.46,22.89,34.49,34.49,0,0,0-6.68-11.81,1.75,1.75,0,0,1,.76-2.78,8.91,8.91,0,0,0,5.64-8.3V425.11a9,9,0,0,0-8.91-8.92H582.41a8.91,8.91,0,0,0-8.85,9.79,9.15,9.15,0,0,0,9.24,8H606a7.87,7.87,0,0,1,7.87,7.88h0a7.87,7.87,0,0,1-7.87,7.87H583.13c-12.83,0-24-9.51-25.25-22.28a24.68,24.68,0,0,1,24.53-27H616A24.64,24.64,0,0,1,640.62,425.09Z"/><rect class="cls-2" x="532.13" y="491.29" width="15.74" height="39.38"/><path class="cls-2" d="M532.13,540.51h15.74v70.93a7.87,7.87,0,0,1-7.87,7.87h0a7.87,7.87,0,0,1-7.87-7.87Z"/><path class="cls-2" d="M540,304.54a31,31,0,0,0-17.71,56.54,30.38,30.38,0,0,0,9.84,4.55V481.45h15.75V365.63a30.48,30.48,0,0,0,9.84-4.55A31,31,0,0,0,540,304.54Zm7.48,44.4a15.17,15.17,0,0,1-15,0,15.32,15.32,0,1,1,15,0Z"/><polygon class="cls-2" points="131.2 727.86 131.2 657.98 94.33 657.98 94.33 637.47 190.55 637.47 190.55 657.98 153.59 657.98 153.59 727.86 131.2 727.86"/><path class="cls-2" d="M264.17,727.86l-21.94-34.55H217.07v34.55H194.76V637.47h56c9.87,0,17.86,2.38,23.75,7.08,6.28,5,9.46,11.93,9.46,20.59a26.36,26.36,0,0,1-7.26,18.6,29.34,29.34,0,0,1-10.36,7.13l23.39,37Zm-14.11-55.2c4.13,0,7.25-.72,9-2.09.95-.74,2-2,2-5.14S260,661,259,660.16c-1.78-1.44-4.59-2.18-8.35-2.18H217.07v14.68Z"/><path class="cls-2" d="M332,729.93c-14.28,0-24.48-2.44-31.17-7.47-7.1-5.34-10.71-13.91-10.71-25.49v-59.5h22.32v56.85c0,6.1,1.1,10.49,3,12.06,1.07.88,4.82,2.9,16.54,2.9s15.42-2,16.47-2.88,3-3.41,3-12.08V637.47h22.39V697c0,11.57-3.6,20.15-10.7,25.49C356.47,727.49,346.27,729.93,332,729.93Z"/><path class="cls-2" d="M429.83,729.93a88.91,88.91,0,0,1-26-3.68,82.27,82.27,0,0,1-23-11.29l-4.85-3.37,13.21-17.69,4.54,3.18a71.76,71.76,0,0,0,17.92,9.22,56,56,0,0,0,18.06,3.12c7,0,12.64-1.28,16.76-3.8,4.31-2.64,4.86-5.17,4.86-7.08,0-1.38-.35-3-3-4.84s-6.89-3.08-12.24-3.48c-1.55-.14-3.71-.28-6.53-.42-15.26-.95-25.49-2.59-31.37-5a28.49,28.49,0,0,1-11.69-8.67,20.82,20.82,0,0,1-4.34-12.86c0-5.75,2.09-14,12.06-20.45,7.22-4.7,16.53-7.08,27.67-7.08a79.82,79.82,0,0,1,23.32,3.51A83.55,83.55,0,0,1,467,649.58l5.15,3.41L458.6,670.36l-4.47-3.23a57,57,0,0,0-15.5-8A52.44,52.44,0,0,0,422,656.41c-5.64,0-10.23.94-13.66,2.78-2.28,1.23-3.44,2.46-3.44,3.66a1.53,1.53,0,0,0,.22.85,5.25,5.25,0,0,0,1.56,1.48c1.15.78,5.62,2.8,20.4,3.63,5.58.29,10,.61,13.11,1,9.94,1,18.07,4,24.12,9,6.57,5.36,9.89,12.12,9.89,20.09,0,9.25-4.57,17.2-13.22,23C453,727.2,442.47,729.93,429.83,729.93Z"/><polygon class="cls-2" points="510.56 727.86 510.56 657.98 473.68 657.98 473.68 637.47 569.91 637.47 569.91 657.98 532.95 657.98 532.95 727.86 510.56 727.86"/><path class="cls-2" d="M650,729.93c-14.55,0-26.79-4.43-36.39-13.18-9.76-8.89-14.7-20.28-14.7-33.87s5-25.06,14.74-34c9.63-8.74,21.86-13.18,36.35-13.18a56.53,56.53,0,0,1,24.64,5.36,47.34,47.34,0,0,1,18.48,15.51l3.46,4.88-19.19,12.31-3-5.14a22.75,22.75,0,0,0-9.6-8.89A32,32,0,0,0,650,656.41c-8.43,0-15.15,2.47-20.56,7.56s-7.9,11.19-7.9,18.91,2.58,13.89,7.89,18.86,12.14,7.54,20.57,7.54a29.3,29.3,0,0,0,26.71-15.22l3.08-5.2,18.23,12.23-2.72,4.64a47,47,0,0,1-18.79,18A56.13,56.13,0,0,1,650,729.93Z"/><path class="cls-2" d="M777.1,727.86l-11.92-21.24H723.44l-11.6,21.24H687.15l49.22-90.39H752.2L802,727.86ZM754,686l-9.67-17.44L734.72,686Z"/><path class="cls-2" d="M873.43,727.86,851.5,693.31H826.34v34.55H804V637.47h56c9.87,0,17.86,2.38,23.75,7.08,6.28,5,9.46,11.93,9.46,20.59a26.36,26.36,0,0,1-7.26,18.6,29.34,29.34,0,0,1-10.36,7.13l23.39,37Zm-14.11-55.2c4.13,0,7.25-.72,9-2.09.95-.74,2-2,2-5.14s-1.15-4.45-2.15-5.27c-1.78-1.44-4.59-2.18-8.35-2.18H826.34v14.68Z"/><polygon class="cls-2" points="901.69 727.86 901.69 637.47 982.1 637.47 982.1 657.98 924 657.98 924 669.73 959.13 669.73 959.13 690.24 924 690.24 924 707.35 985.67 707.35 985.67 727.86 901.69 727.86"/><path class="cls-2" d="M350.66,775.46a24,24,0,0,1-8.09-1.32,19.36,19.36,0,0,1-6.43-3.72,17.33,17.33,0,0,1-4.24-5.64,17.25,17.25,0,0,1,0-14.16,17.14,17.14,0,0,1,4.27-5.64,19.92,19.92,0,0,1,6.45-3.71,23.82,23.82,0,0,1,8.1-1.33,24.26,24.26,0,0,1,7.92,1.28A16,16,0,0,1,364.9,745l-2.6,2.35a14.6,14.6,0,0,0-5.27-3.17,19.23,19.23,0,0,0-6.2-1,19,19,0,0,0-6.49,1.07,15.79,15.79,0,0,0-5.21,3,14.2,14.2,0,0,0-3.46,4.59,13.9,13.9,0,0,0,0,11.52,14.2,14.2,0,0,0,3.46,4.59,15.79,15.79,0,0,0,5.21,3,20.07,20.07,0,0,0,12.69.08A15.09,15.09,0,0,0,362.3,768l2.6,2.34a16.2,16.2,0,0,1-6.26,3.84A24.19,24.19,0,0,1,350.66,775.46Z"/><path class="cls-2" d="M416.55,772h23.34v3.19H412.45V740.24h26.6v3.2h-22.5Zm-.44-16.12h20.5V759h-20.5Z"/><path class="cls-2" d="M488.32,775.16V740.24h3.38l26.77,30.33H516.7V740.24h4v34.92h-3.38l-26.71-30.33h1.77v30.33Z"/><path class="cls-2" d="M579.71,775.16V743.44H566.07v-3.2h31.37v3.2H583.81v31.72Z"/><path class="cls-2" d="M646.88,772h23.33v3.19H642.77V740.24h26.61v3.2h-22.5Zm-.45-16.12h20.51V759H646.43Z"/><path class="cls-2" d="M718.64,775.16V740.24h14.52a22.91,22.91,0,0,1,8.48,1.42,12,12,0,0,1,5.46,4.09,10.78,10.78,0,0,1,1.91,6.46,10.56,10.56,0,0,1-1.91,6.36,11.88,11.88,0,0,1-5.46,4.09,22.7,22.7,0,0,1-8.48,1.42H720.92l1.82-1.69v12.77Zm4.1-12.47-1.82-1.75h12.13q5.82,0,8.84-2.29a8.42,8.42,0,0,0,0-12.92q-3-2.29-8.84-2.29H720.92l1.82-1.75Zm22.39,12.47-10-12.67h4.43l10,12.67Z"/></svg>