<svg xmlns="http://www.w3.org/2000/svg" xmlns:xlink="http://www.w3.org/1999/xlink" viewBox="0 0 156.77 157.21"><defs><style>.cls-1,.cls-2{fill:#f1f2f2;stroke-miterlimit:10;}.cls-1{stroke:#e6e7e8;stroke-width:10px;}.cls-2{stroke:#fff;stroke-width:2px;}.cls-3{fill:url(#linear-gradient);}.cls-4{fill:#fdba12;}</style><linearGradient id="linear-gradient" x1="62.55" y1="19.99" x2="94.25" y2="124.36" gradientUnits="userSpaceOnUse"><stop offset="0.53" stop-color="#2272ba"/><stop offset="1" stop-color="#1b2f5c"/></linearGradient></defs><g id="Layer_3" data-name="Layer 3"><circle class="cls-1" cx="79.11" cy="78.09" r="69.36"/><circle class="cls-2" cx="79.11" cy="78.09" r="69.36"/></g><g id="Layer_1" data-name="Layer 1"><path class="cls-3" d="M66.86,43.52a2.37,2.37,0,0,1-.57-4.71A9.48,9.48,0,0,1,76.63,50h4.08a2.36,2.36,0,0,1,0,4.71H74.25l-.19.24a9.41,9.41,0,0,1-6.66,2.78h-.52a2.36,2.36,0,1,1,.26-4.71,4.69,4.69,0,0,0,3.58-1.39,4.87,4.87,0,0,0,0-6.79,4.7,4.7,0,0,0-3.86-1.36Zm21.2,0a4.7,4.7,0,0,1,3.86,1.36,4.87,4.87,0,0,1,0,6.79,4.69,4.69,0,0,1-3.58,1.39,2.34,2.34,0,0,0-1.71.6,2.36,2.36,0,0,0,1.45,4.11h.52A9.41,9.41,0,0,0,95.26,55a9.59,9.59,0,0,0,0-13.43,9.4,9.4,0,0,0-7.77-2.75,2.37,2.37,0,1,0,.57,4.71ZM109,104.76a2.36,2.36,0,0,0,2.36-2.36V67.07H50.09V102.4a2.36,2.36,0,0,0,2.35,2.36Zm0-54.69A7.05,7.05,0,0,1,116,57.18V102.4a7.08,7.08,0,0,1-7.07,7.07H52.44a7.07,7.07,0,0,1-7.06-7.07V57.18a7.07,7.07,0,0,1,7.06-7.07h7.07a2.36,2.36,0,0,1,0,4.71H52.44a2.36,2.36,0,0,0-2.35,2.36v5.18h61.24V57.13a2.36,2.36,0,0,0-.69-1.66,2.32,2.32,0,0,0-1.67-.69h-7.06a2.36,2.36,0,1,1,0-4.71Z"/><path class="cls-4" d="M90.13,88.6H85.75A2.36,2.36,0,0,0,83.39,91v4.38H78V91a2.36,2.36,0,0,0-2.35-2.36H71.29V83.23h4.38A2.36,2.36,0,0,0,78,80.87V76.49h5.37v4.38a2.36,2.36,0,0,0,2.36,2.36h4.38Zm1.51-10.08H88.1V75a3.21,3.21,0,0,0-3.18-3.21H76.49A3.21,3.21,0,0,0,73.31,75v3.53H69.78a3.21,3.21,0,0,0-3.21,3.18v8.43a3.21,3.21,0,0,0,3.21,3.18h3.53v3.53a3.2,3.2,0,0,0,3.18,3.21h8.43a3.2,3.2,0,0,0,3.18-3.21V93.31h3.54a3.2,3.2,0,0,0,3.2-3.18V81.7A3.2,3.2,0,0,0,91.64,78.52Z"/></g></svg>