<svg xmlns="http://www.w3.org/2000/svg" xmlns:xlink="http://www.w3.org/1999/xlink" viewBox="0 0 156.77 157.21"><defs><style>.cls-1,.cls-2{fill:#f1f2f2;stroke-miterlimit:10;}.cls-1{stroke:#e6e7e8;stroke-width:10px;}.cls-2{stroke:#fff;stroke-width:2px;}.cls-3{fill:url(#linear-gradient);}.cls-4{fill:#fdba12;}</style><linearGradient id="linear-gradient" x1="52.63" y1="43.89" x2="103.49" y2="112.59" gradientUnits="userSpaceOnUse"><stop offset="0.35" stop-color="#2272ba"/><stop offset="1" stop-color="#1b2f5c"/></linearGradient></defs><g id="Layer_3" data-name="Layer 3"><circle class="cls-1" cx="79.11" cy="78.09" r="69.36"/><circle class="cls-2" cx="79.11" cy="78.09" r="69.36"/></g><g id="Layer_1" data-name="Layer 1"><path class="cls-3" d="M106.56,47.37H47.68A13.18,13.18,0,0,0,34.52,60.53V93.42a13.19,13.19,0,0,0,13.16,13.16h58.88a13.2,13.2,0,0,0,13.17-13.16V60.53A13.19,13.19,0,0,0,106.56,47.37ZM47.68,52.2h58.88a8.36,8.36,0,0,1,8.33,8.33v.65H39.35v-.65A8.36,8.36,0,0,1,47.68,52.2Zm58.88,49.55H47.68a8.36,8.36,0,0,1-8.33-8.33v-20h75.54v20A8.36,8.36,0,0,1,106.56,101.75Z"/><rect class="cls-4" x="45.15" y="79.89" width="42.05" height="5.68" rx="2.84"/><rect class="cls-4" x="45.15" y="90.09" width="30.88" height="5.68" rx="2.84"/></g></svg>